<svg xmlns="http://www.w3.org/2000/svg" viewBox="0 0 200 200" width="200" height="200">
  <style>
    .bob{animation:bob 1.4s steps(1) infinite;transform-origin:100px 132px}
    .eyes-blink{animation:blink 4.2s steps(1) infinite}
    .spark{animation:twinkle 1.8s ease-in-out infinite}
    @keyframes bob{0%,49%{transform:translateY(0)}50%,100%{transform:translateY(-2px)}}
    @keyframes blink{0%,93%,100%{opacity:1}95%,98%{opacity:0}}
    @keyframes twinkle{0%,100%{opacity:0.9}50%{opacity:0.25}}
  </style>
  <defs>
    <radialGradient id="bg-dog-3" cx="50%" cy="40%" r="60%">
      <stop offset="0%" stop-color="#f59e0b" stop-opacity="0.54"/>
      <stop offset="100%" stop-color="#f59e0b" stop-opacity="0.42"/>
    </radialGradient>
  </defs>
  <circle cx="100" cy="100" r="92" fill="url(#bg-dog-3)"
          stroke="#f59e0b" stroke-width="3" stroke-opacity="0.85"/>
  <g class="spark"><rect x="32" y="58" width="4" height="4" fill="#fde68a"/><rect x="160" y="50" width="4" height="4" fill="#fde68a"/><rect x="42" y="148" width="4" height="4" fill="#fde68a"/><rect x="156" y="146" width="4" height="4" fill="#fde68a"/><rect x="28" y="100" width="3" height="3" fill="#fef9c3"/><rect x="170" y="102" width="3" height="3" fill="#fef9c3"/></g>
  <ellipse cx="100" cy="172" rx="34" ry="5" fill="#000" opacity="0.18"/>
  <g class="bob" shape-rendering="crispEdges">
    <rect x="100" y="24" width="4" height="4" fill="#fbbf24"/>
    <rect x="84" y="28" width="4" height="4" fill="#fbbf24"/>
    <rect x="100" y="28" width="4" height="4" fill="#fbbf24"/>
    <rect x="116" y="28" width="4" height="4" fill="#fbbf24"/>
    <rect x="84" y="32" width="8" height="4" fill="#fbbf24"/>
    <rect x="92" y="32" width="4" height="4" fill="#ef4444"/>
    <rect x="96" y="32" width="4" height="4" fill="#fbbf24"/>
    <rect x="100" y="32" width="4" height="4" fill="#3b82f6"/>
    <rect x="104" y="32" width="4" height="4" fill="#fbbf24"/>
    <rect x="108" y="32" width="4" height="4" fill="#10b981"/>
    <rect x="112" y="32" width="8" height="4" fill="#fbbf24"/>
    <rect x="84" y="36" width="36" height="4" fill="#b45309"/>
    <rect x="56" y="40" width="16" height="4" fill="#1f1326"/>
    <rect x="76" y="40" width="8" height="4" fill="#1f1326"/>
    <rect x="84" y="40" width="36" height="4" fill="#d6a36b"/>
    <rect x="120" y="40" width="8" height="4" fill="#1f1326"/>
    <rect x="132" y="40" width="16" height="4" fill="#1f1326"/>
    <rect x="52" y="44" width="4" height="4" fill="#1f1326"/>
    <rect x="56" y="44" width="16" height="4" fill="#8a5a32"/>
    <rect x="72" y="44" width="4" height="4" fill="#1f1326"/>
    <rect x="76" y="44" width="52" height="4" fill="#d6a36b"/>
    <rect x="128" y="44" width="4" height="4" fill="#1f1326"/>
    <rect x="132" y="44" width="16" height="4" fill="#8a5a32"/>
    <rect x="148" y="44" width="4" height="4" fill="#1f1326"/>
    <rect x="52" y="48" width="4" height="4" fill="#1f1326"/>
    <rect x="56" y="48" width="4" height="4" fill="#8a5a32"/>
    <rect x="60" y="48" width="4" height="4" fill="#d6a36b"/>
    <rect x="64" y="48" width="8" height="4" fill="#8a5a32"/>
    <rect x="72" y="48" width="60" height="4" fill="#d6a36b"/>
    <rect x="132" y="48" width="12" height="4" fill="#8a5a32"/>
    <rect x="144" y="48" width="4" height="4" fill="#d6a36b"/>
    <rect x="148" y="48" width="4" height="4" fill="#1f1326"/>
    <rect x="52" y="52" width="4" height="4" fill="#1f1326"/>
    <rect x="56" y="52" width="16" height="4" fill="#8a5a32"/>
    <rect x="72" y="52" width="60" height="4" fill="#d6a36b"/>
    <rect x="132" y="52" width="16" height="4" fill="#8a5a32"/>
    <rect x="148" y="52" width="4" height="4" fill="#1f1326"/>
    <rect x="52" y="56" width="4" height="4" fill="#1f1326"/>
    <rect x="56" y="56" width="16" height="4" fill="#8a5a32"/>
    <rect x="72" y="56" width="60" height="4" fill="#d6a36b"/>
    <rect x="132" y="56" width="16" height="4" fill="#8a5a32"/>
    <rect x="148" y="56" width="4" height="4" fill="#1f1326"/>
    <rect x="52" y="60" width="4" height="4" fill="#1f1326"/>
    <rect x="56" y="60" width="16" height="4" fill="#8a5a32"/>
    <rect x="72" y="60" width="60" height="4" fill="#d6a36b"/>
    <rect x="132" y="60" width="16" height="4" fill="#8a5a32"/>
    <rect x="148" y="60" width="4" height="4" fill="#1f1326"/>
    <rect x="52" y="64" width="4" height="4" fill="#1f1326"/>
    <rect x="56" y="64" width="16" height="4" fill="#8a5a32"/>
    <rect x="72" y="64" width="60" height="4" fill="#d6a36b"/>
    <rect x="132" y="64" width="16" height="4" fill="#8a5a32"/>
    <rect x="148" y="64" width="4" height="4" fill="#1f1326"/>
    <rect x="52" y="68" width="4" height="4" fill="#1f1326"/>
    <rect x="56" y="68" width="16" height="4" fill="#8a5a32"/>
    <rect x="72" y="68" width="60" height="4" fill="#d6a36b"/>
    <rect x="132" y="68" width="16" height="4" fill="#8a5a32"/>
    <rect x="148" y="68" width="4" height="4" fill="#1f1326"/>
    <rect x="56" y="72" width="8" height="4" fill="#1f1326"/>
    <rect x="64" y="72" width="20" height="4" fill="#d6a36b"/>
    <rect x="84" y="72" width="4" height="4" fill="#ffffff"/>
    <rect x="88" y="72" width="4" height="4" fill="#1f1326"/>
    <rect x="92" y="72" width="16" height="4" fill="#d6a36b"/>
    <rect x="108" y="72" width="4" height="4" fill="#ffffff"/>
    <rect x="112" y="72" width="4" height="4" fill="#1f1326"/>
    <rect x="116" y="72" width="24" height="4" fill="#d6a36b"/>
    <rect x="140" y="72" width="8" height="4" fill="#1f1326"/>
    <rect x="56" y="76" width="4" height="4" fill="#1f1326"/>
    <rect x="60" y="76" width="24" height="4" fill="#d6a36b"/>
    <rect x="84" y="76" width="8" height="4" fill="#1f1326"/>
    <rect x="92" y="76" width="16" height="4" fill="#d6a36b"/>
    <rect x="108" y="76" width="8" height="4" fill="#1f1326"/>
    <rect x="116" y="76" width="28" height="4" fill="#d6a36b"/>
    <rect x="144" y="76" width="4" height="4" fill="#1f1326"/>
    <rect x="60" y="80" width="4" height="4" fill="#1f1326"/>
    <rect x="64" y="80" width="76" height="4" fill="#d6a36b"/>
    <rect x="140" y="80" width="4" height="4" fill="#1f1326"/>
    <rect x="60" y="84" width="4" height="4" fill="#1f1326"/>
    <rect x="64" y="84" width="4" height="4" fill="#d6a36b"/>
    <rect x="68" y="84" width="4" height="4" fill="#fda4af"/>
    <rect x="72" y="84" width="64" height="4" fill="#d6a36b"/>
    <rect x="136" y="84" width="4" height="4" fill="#fda4af"/>
    <rect x="60" y="88" width="4" height="4" fill="#1f1326"/>
    <rect x="64" y="88" width="76" height="4" fill="#d6a36b"/>
    <rect x="140" y="88" width="4" height="4" fill="#1f1326"/>
    <rect x="60" y="92" width="4" height="4" fill="#1f1326"/>
    <rect x="64" y="92" width="76" height="4" fill="#d6a36b"/>
    <rect x="140" y="92" width="4" height="4" fill="#1f1326"/>
    <rect x="64" y="96" width="4" height="4" fill="#1f1326"/>
    <rect x="68" y="96" width="28" height="4" fill="#d6a36b"/>
    <rect x="96" y="96" width="8" height="4" fill="#1f1326"/>
    <rect x="104" y="96" width="32" height="4" fill="#d6a36b"/>
    <rect x="136" y="96" width="4" height="4" fill="#1f1326"/>
    <rect x="64" y="100" width="4" height="4" fill="#1f1326"/>
    <rect x="68" y="100" width="20" height="4" fill="#d6a36b"/>
    <rect x="88" y="100" width="28" height="4" fill="#f5dcb1"/>
    <rect x="116" y="100" width="20" height="4" fill="#d6a36b"/>
    <rect x="136" y="100" width="4" height="4" fill="#1f1326"/>
    <rect x="68" y="104" width="4" height="4" fill="#1f1326"/>
    <rect x="72" y="104" width="12" height="4" fill="#d6a36b"/>
    <rect x="84" y="104" width="12" height="4" fill="#f5dcb1"/>
    <rect x="96" y="104" width="8" height="4" fill="#1f1326"/>
    <rect x="104" y="104" width="16" height="4" fill="#f5dcb1"/>
    <rect x="120" y="104" width="12" height="4" fill="#d6a36b"/>
    <rect x="132" y="104" width="4" height="4" fill="#1f1326"/>
    <rect x="72" y="108" width="4" height="4" fill="#1f1326"/>
    <rect x="76" y="108" width="12" height="4" fill="#d6a36b"/>
    <rect x="88" y="108" width="28" height="4" fill="#f5dcb1"/>
    <rect x="116" y="108" width="12" height="4" fill="#d6a36b"/>
    <rect x="128" y="108" width="4" height="4" fill="#1f1326"/>
    <rect x="76" y="112" width="8" height="4" fill="#1f1326"/>
    <rect x="84" y="112" width="16" height="4" fill="#d6a36b"/>
    <rect x="100" y="112" width="4" height="4" fill="#f5dcb1"/>
    <rect x="104" y="112" width="16" height="4" fill="#d6a36b"/>
    <rect x="120" y="112" width="8" height="4" fill="#1f1326"/>
    <rect x="76" y="116" width="8" height="4" fill="#1f1326"/>
    <rect x="84" y="116" width="36" height="4" fill="#d6a36b"/>
    <rect x="120" y="116" width="8" height="4" fill="#1f1326"/>
    <rect x="72" y="120" width="4" height="4" fill="#1f1326"/>
    <rect x="76" y="120" width="52" height="4" fill="#d6a36b"/>
    <rect x="128" y="120" width="4" height="4" fill="#1f1326"/>
    <rect x="144" y="120" width="4" height="4" fill="#1f1326"/>
    <rect x="68" y="124" width="4" height="4" fill="#1f1326"/>
    <rect x="72" y="124" width="28" height="4" fill="#d6a36b"/>
    <rect x="100" y="124" width="4" height="4" fill="#f5dcb1"/>
    <rect x="104" y="124" width="28" height="4" fill="#d6a36b"/>
    <rect x="132" y="124" width="4" height="4" fill="#1f1326"/>
    <rect x="140" y="124" width="4" height="4" fill="#1f1326"/>
    <rect x="144" y="124" width="4" height="4" fill="#d6a36b"/>
    <rect x="148" y="124" width="4" height="4" fill="#1f1326"/>
    <rect x="64" y="128" width="4" height="4" fill="#1f1326"/>
    <rect x="68" y="128" width="20" height="4" fill="#d6a36b"/>
    <rect x="88" y="128" width="28" height="4" fill="#f5dcb1"/>
    <rect x="116" y="128" width="20" height="4" fill="#d6a36b"/>
    <rect x="136" y="128" width="4" height="4" fill="#1f1326"/>
    <rect x="140" y="128" width="8" height="4" fill="#d6a36b"/>
    <rect x="148" y="128" width="4" height="4" fill="#1f1326"/>
    <rect x="64" y="132" width="4" height="4" fill="#1f1326"/>
    <rect x="68" y="132" width="12" height="4" fill="#d6a36b"/>
    <rect x="80" y="132" width="44" height="4" fill="#f5dcb1"/>
    <rect x="124" y="132" width="16" height="4" fill="#d6a36b"/>
    <rect x="140" y="132" width="8" height="4" fill="#1f1326"/>
    <rect x="60" y="136" width="4" height="4" fill="#1f1326"/>
    <rect x="64" y="136" width="16" height="4" fill="#d6a36b"/>
    <rect x="80" y="136" width="44" height="4" fill="#f5dcb1"/>
    <rect x="124" y="136" width="16" height="4" fill="#d6a36b"/>
    <rect x="140" y="136" width="4" height="4" fill="#1f1326"/>
    <rect x="64" y="140" width="4" height="4" fill="#1f1326"/>
    <rect x="68" y="140" width="8" height="4" fill="#d6a36b"/>
    <rect x="76" y="140" width="52" height="4" fill="#f5dcb1"/>
    <rect x="128" y="140" width="8" height="4" fill="#d6a36b"/>
    <rect x="136" y="140" width="4" height="4" fill="#1f1326"/>
    <rect x="64" y="144" width="4" height="4" fill="#1f1326"/>
    <rect x="68" y="144" width="12" height="4" fill="#d6a36b"/>
    <rect x="80" y="144" width="44" height="4" fill="#f5dcb1"/>
    <rect x="124" y="144" width="12" height="4" fill="#d6a36b"/>
    <rect x="136" y="144" width="4" height="4" fill="#1f1326"/>
    <rect x="68" y="148" width="4" height="4" fill="#1f1326"/>
    <rect x="72" y="148" width="8" height="4" fill="#d6a36b"/>
    <rect x="80" y="148" width="44" height="4" fill="#f5dcb1"/>
    <rect x="124" y="148" width="8" height="4" fill="#d6a36b"/>
    <rect x="132" y="148" width="4" height="4" fill="#1f1326"/>
    <rect x="72" y="152" width="4" height="4" fill="#1f1326"/>
    <rect x="76" y="152" width="12" height="4" fill="#d6a36b"/>
    <rect x="88" y="152" width="28" height="4" fill="#f5dcb1"/>
    <rect x="116" y="152" width="12" height="4" fill="#d6a36b"/>
    <rect x="128" y="152" width="4" height="4" fill="#1f1326"/>
    <rect x="68" y="156" width="16" height="4" fill="#1f1326"/>
    <rect x="84" y="156" width="16" height="4" fill="#d6a36b"/>
    <rect x="100" y="156" width="4" height="4" fill="#f5dcb1"/>
    <rect x="104" y="156" width="16" height="4" fill="#d6a36b"/>
    <rect x="120" y="156" width="16" height="4" fill="#1f1326"/>
    <rect x="64" y="160" width="4" height="4" fill="#1f1326"/>
    <rect x="68" y="160" width="8" height="4" fill="#d6a36b"/>
    <rect x="76" y="160" width="4" height="4" fill="#1f1326"/>
    <rect x="84" y="160" width="8" height="4" fill="#1f1326"/>
    <rect x="92" y="160" width="20" height="4" fill="#d6a36b"/>
    <rect x="112" y="160" width="8" height="4" fill="#1f1326"/>
    <rect x="124" y="160" width="4" height="4" fill="#1f1326"/>
    <rect x="128" y="160" width="8" height="4" fill="#d6a36b"/>
    <rect x="136" y="160" width="4" height="4" fill="#1f1326"/>
    <rect x="64" y="164" width="4" height="4" fill="#1f1326"/>
    <rect x="68" y="164" width="8" height="4" fill="#d6a36b"/>
    <rect x="76" y="164" width="4" height="4" fill="#1f1326"/>
    <rect x="88" y="164" width="4" height="4" fill="#1f1326"/>
    <rect x="92" y="164" width="8" height="4" fill="#d6a36b"/>
    <rect x="100" y="164" width="4" height="4" fill="#1f1326"/>
    <rect x="104" y="164" width="8" height="4" fill="#d6a36b"/>
    <rect x="112" y="164" width="4" height="4" fill="#1f1326"/>
    <rect x="124" y="164" width="4" height="4" fill="#1f1326"/>
    <rect x="128" y="164" width="8" height="4" fill="#d6a36b"/>
    <rect x="136" y="164" width="4" height="4" fill="#1f1326"/>
    <rect x="64" y="168" width="4" height="4" fill="#1f1326"/>
    <rect x="68" y="168" width="8" height="4" fill="#d6a36b"/>
    <rect x="76" y="168" width="4" height="4" fill="#1f1326"/>
    <rect x="88" y="168" width="4" height="4" fill="#1f1326"/>
    <rect x="92" y="168" width="8" height="4" fill="#d6a36b"/>
    <rect x="100" y="168" width="4" height="4" fill="#1f1326"/>
    <rect x="104" y="168" width="8" height="4" fill="#d6a36b"/>
    <rect x="112" y="168" width="4" height="4" fill="#1f1326"/>
    <rect x="124" y="168" width="4" height="4" fill="#1f1326"/>
    <rect x="128" y="168" width="8" height="4" fill="#d6a36b"/>
    <rect x="136" y="168" width="4" height="4" fill="#1f1326"/>
    <rect x="68" y="172" width="8" height="4" fill="#1f1326"/>
    <rect x="92" y="172" width="8" height="4" fill="#1f1326"/>
    <rect x="104" y="172" width="8" height="4" fill="#1f1326"/>
    <rect x="128" y="172" width="8" height="4" fill="#1f1326"/>
  </g>
  <text x="100" y="190" font-size="8" text-anchor="middle"
        font-family="ui-monospace, Menlo, monospace" fill="#f59e0b" opacity="0.5"
        letter-spacing="0.5">DOG·F3</text>
</svg>
