<svg xmlns="http://www.w3.org/2000/svg" viewBox="0 0 200 200" width="200" height="200">
  <style>
    .bob{animation:bob 1.4s steps(1) infinite;transform-origin:100px 132px}
    .eyes-blink{animation:blink 4.2s steps(1) infinite}
    .spark{animation:twinkle 1.8s ease-in-out infinite}
    @keyframes bob{0%,49%{transform:translateY(0)}50%,100%{transform:translateY(-2px)}}
    @keyframes blink{0%,93%,100%{opacity:1}95%,98%{opacity:0}}
    @keyframes twinkle{0%,100%{opacity:0.9}50%{opacity:0.25}}
  </style>
  <defs>
    <radialGradient id="bg-dragon-1" cx="50%" cy="40%" r="60%">
      <stop offset="0%" stop-color="#dc2626" stop-opacity="0.3"/>
      <stop offset="100%" stop-color="#dc2626" stop-opacity="0.18"/>
    </radialGradient>
  </defs>
  <circle cx="100" cy="100" r="92" fill="url(#bg-dragon-1)"
          stroke="#dc2626" stroke-width="3" stroke-opacity="0.3"/>
  
  <ellipse cx="100" cy="172" rx="34" ry="5" fill="#000" opacity="0.18"/>
  <g class="bob" shape-rendering="crispEdges">
    <rect x="84" y="52" width="4" height="4" fill="#fef9c3"/>
    <rect x="100" y="52" width="4" height="4" fill="#1f1326"/>
    <rect x="112" y="52" width="4" height="4" fill="#fef9c3"/>
    <rect x="84" y="56" width="4" height="4" fill="#fef9c3"/>
    <rect x="88" y="56" width="12" height="4" fill="#1f1326"/>
    <rect x="100" y="56" width="4" height="4" fill="#ef4444"/>
    <rect x="104" y="56" width="8" height="4" fill="#1f1326"/>
    <rect x="112" y="56" width="4" height="4" fill="#fef9c3"/>
    <rect x="80" y="60" width="8" height="4" fill="#1f1326"/>
    <rect x="88" y="60" width="28" height="4" fill="#ef4444"/>
    <rect x="116" y="60" width="8" height="4" fill="#1f1326"/>
    <rect x="76" y="64" width="4" height="4" fill="#1f1326"/>
    <rect x="80" y="64" width="44" height="4" fill="#ef4444"/>
    <rect x="124" y="64" width="4" height="4" fill="#1f1326"/>
    <rect x="72" y="68" width="4" height="4" fill="#1f1326"/>
    <rect x="76" y="68" width="52" height="4" fill="#ef4444"/>
    <rect x="128" y="68" width="4" height="4" fill="#1f1326"/>
    <rect x="72" y="72" width="4" height="4" fill="#1f1326"/>
    <rect x="76" y="72" width="52" height="4" fill="#ef4444"/>
    <rect x="128" y="72" width="4" height="4" fill="#1f1326"/>
    <rect x="68" y="76" width="4" height="4" fill="#1f1326"/>
    <rect x="72" y="76" width="60" height="4" fill="#ef4444"/>
    <rect x="132" y="76" width="4" height="4" fill="#1f1326"/>
    <rect x="68" y="80" width="4" height="4" fill="#1f1326"/>
    <rect x="72" y="80" width="60" height="4" fill="#ef4444"/>
    <rect x="132" y="80" width="4" height="4" fill="#1f1326"/>
    <rect x="68" y="84" width="4" height="4" fill="#1f1326"/>
    <rect x="72" y="84" width="12" height="4" fill="#ef4444"/>
    <rect x="84" y="84" width="8" height="4" fill="#ffffff"/>
    <rect x="92" y="84" width="4" height="4" fill="#1f1326"/>
    <rect x="96" y="84" width="12" height="4" fill="#ef4444"/>
    <rect x="108" y="84" width="8" height="4" fill="#ffffff"/>
    <rect x="116" y="84" width="4" height="4" fill="#1f1326"/>
    <rect x="120" y="84" width="12" height="4" fill="#ef4444"/>
    <rect x="132" y="84" width="4" height="4" fill="#1f1326"/>
    <rect x="64" y="88" width="4" height="4" fill="#1f1326"/>
    <rect x="68" y="88" width="16" height="4" fill="#ef4444"/>
    <rect x="84" y="88" width="12" height="4" fill="#1f1326"/>
    <rect x="96" y="88" width="12" height="4" fill="#ef4444"/>
    <rect x="108" y="88" width="12" height="4" fill="#1f1326"/>
    <rect x="120" y="88" width="16" height="4" fill="#ef4444"/>
    <rect x="136" y="88" width="4" height="4" fill="#1f1326"/>
    <rect x="68" y="92" width="4" height="4" fill="#1f1326"/>
    <rect x="72" y="92" width="12" height="4" fill="#ef4444"/>
    <rect x="84" y="92" width="12" height="4" fill="#1f1326"/>
    <rect x="96" y="92" width="12" height="4" fill="#ef4444"/>
    <rect x="108" y="92" width="12" height="4" fill="#1f1326"/>
    <rect x="120" y="92" width="12" height="4" fill="#ef4444"/>
    <rect x="132" y="92" width="4" height="4" fill="#1f1326"/>
    <rect x="68" y="96" width="4" height="4" fill="#1f1326"/>
    <rect x="72" y="96" width="60" height="4" fill="#ef4444"/>
    <rect x="132" y="96" width="4" height="4" fill="#1f1326"/>
    <rect x="68" y="100" width="4" height="4" fill="#1f1326"/>
    <rect x="72" y="100" width="28" height="4" fill="#ef4444"/>
    <rect x="100" y="100" width="4" height="4" fill="#fecaca"/>
    <rect x="104" y="100" width="28" height="4" fill="#ef4444"/>
    <rect x="132" y="100" width="4" height="4" fill="#1f1326"/>
    <rect x="72" y="104" width="4" height="4" fill="#1f1326"/>
    <rect x="76" y="104" width="12" height="4" fill="#ef4444"/>
    <rect x="88" y="104" width="8" height="4" fill="#fecaca"/>
    <rect x="96" y="104" width="4" height="4" fill="#1f1326"/>
    <rect x="100" y="104" width="4" height="4" fill="#fecaca"/>
    <rect x="104" y="104" width="4" height="4" fill="#1f1326"/>
    <rect x="108" y="104" width="8" height="4" fill="#fecaca"/>
    <rect x="116" y="104" width="12" height="4" fill="#ef4444"/>
    <rect x="128" y="104" width="4" height="4" fill="#1f1326"/>
    <rect x="72" y="108" width="4" height="4" fill="#1f1326"/>
    <rect x="76" y="108" width="8" height="4" fill="#ef4444"/>
    <rect x="84" y="108" width="36" height="4" fill="#fecaca"/>
    <rect x="120" y="108" width="8" height="4" fill="#ef4444"/>
    <rect x="128" y="108" width="4" height="4" fill="#1f1326"/>
    <rect x="76" y="112" width="4" height="4" fill="#1f1326"/>
    <rect x="80" y="112" width="8" height="4" fill="#ef4444"/>
    <rect x="88" y="112" width="8" height="4" fill="#fecaca"/>
    <rect x="96" y="112" width="4" height="4" fill="#ffffff"/>
    <rect x="100" y="112" width="4" height="4" fill="#fecaca"/>
    <rect x="104" y="112" width="4" height="4" fill="#ffffff"/>
    <rect x="108" y="112" width="8" height="4" fill="#fecaca"/>
    <rect x="116" y="112" width="8" height="4" fill="#ef4444"/>
    <rect x="124" y="112" width="4" height="4" fill="#1f1326"/>
    <rect x="80" y="116" width="8" height="4" fill="#1f1326"/>
    <rect x="88" y="116" width="12" height="4" fill="#ef4444"/>
    <rect x="100" y="116" width="4" height="4" fill="#fecaca"/>
    <rect x="104" y="116" width="12" height="4" fill="#ef4444"/>
    <rect x="116" y="116" width="8" height="4" fill="#1f1326"/>
    <rect x="80" y="120" width="8" height="4" fill="#1f1326"/>
    <rect x="88" y="120" width="28" height="4" fill="#ef4444"/>
    <rect x="116" y="120" width="8" height="4" fill="#1f1326"/>
    <rect x="76" y="124" width="4" height="4" fill="#1f1326"/>
    <rect x="80" y="124" width="44" height="4" fill="#ef4444"/>
    <rect x="124" y="124" width="12" height="4" fill="#1f1326"/>
    <rect x="76" y="128" width="4" height="4" fill="#1f1326"/>
    <rect x="80" y="128" width="20" height="4" fill="#ef4444"/>
    <rect x="100" y="128" width="4" height="4" fill="#fecaca"/>
    <rect x="104" y="128" width="20" height="4" fill="#ef4444"/>
    <rect x="124" y="128" width="4" height="4" fill="#1f1326"/>
    <rect x="128" y="128" width="8" height="4" fill="#ef4444"/>
    <rect x="136" y="128" width="4" height="4" fill="#1f1326"/>
    <rect x="72" y="132" width="4" height="4" fill="#1f1326"/>
    <rect x="76" y="132" width="12" height="4" fill="#ef4444"/>
    <rect x="88" y="132" width="28" height="4" fill="#fecaca"/>
    <rect x="116" y="132" width="12" height="4" fill="#ef4444"/>
    <rect x="128" y="132" width="8" height="4" fill="#1f1326"/>
    <rect x="76" y="136" width="4" height="4" fill="#1f1326"/>
    <rect x="80" y="136" width="4" height="4" fill="#ef4444"/>
    <rect x="84" y="136" width="36" height="4" fill="#fecaca"/>
    <rect x="120" y="136" width="4" height="4" fill="#ef4444"/>
    <rect x="124" y="136" width="4" height="4" fill="#1f1326"/>
    <rect x="76" y="140" width="4" height="4" fill="#1f1326"/>
    <rect x="80" y="140" width="8" height="4" fill="#ef4444"/>
    <rect x="88" y="140" width="28" height="4" fill="#fecaca"/>
    <rect x="116" y="140" width="8" height="4" fill="#ef4444"/>
    <rect x="124" y="140" width="4" height="4" fill="#1f1326"/>
    <rect x="80" y="144" width="8" height="4" fill="#1f1326"/>
    <rect x="88" y="144" width="12" height="4" fill="#ef4444"/>
    <rect x="100" y="144" width="4" height="4" fill="#fecaca"/>
    <rect x="104" y="144" width="12" height="4" fill="#ef4444"/>
    <rect x="116" y="144" width="8" height="4" fill="#1f1326"/>
    <rect x="80" y="148" width="4" height="4" fill="#1f1326"/>
    <rect x="84" y="148" width="8" height="4" fill="#ef4444"/>
    <rect x="92" y="148" width="8" height="4" fill="#1f1326"/>
    <rect x="100" y="148" width="4" height="4" fill="#ef4444"/>
    <rect x="104" y="148" width="8" height="4" fill="#1f1326"/>
    <rect x="112" y="148" width="8" height="4" fill="#ef4444"/>
    <rect x="120" y="148" width="4" height="4" fill="#1f1326"/>
    <rect x="80" y="152" width="4" height="4" fill="#1f1326"/>
    <rect x="84" y="152" width="8" height="4" fill="#ef4444"/>
    <rect x="92" y="152" width="4" height="4" fill="#1f1326"/>
    <rect x="100" y="152" width="4" height="4" fill="#1f1326"/>
    <rect x="108" y="152" width="4" height="4" fill="#1f1326"/>
    <rect x="112" y="152" width="8" height="4" fill="#ef4444"/>
    <rect x="120" y="152" width="4" height="4" fill="#1f1326"/>
    <rect x="84" y="156" width="4" height="4" fill="#facc15"/>
    <rect x="88" y="156" width="4" height="4" fill="#1f1326"/>
    <rect x="112" y="156" width="4" height="4" fill="#1f1326"/>
    <rect x="116" y="156" width="4" height="4" fill="#facc15"/>
  </g>
  <text x="100" y="190" font-size="8" text-anchor="middle"
        font-family="ui-monospace, Menlo, monospace" fill="#dc2626" opacity="0.5"
        letter-spacing="0.5">DRAGON·F1</text>
</svg>
