<svg xmlns="http://www.w3.org/2000/svg" viewBox="0 0 200 200" width="200" height="200">
  <style>
    .bob{animation:bob 1.4s steps(1) infinite;transform-origin:100px 132px}
    .eyes-blink{animation:blink 4.2s steps(1) infinite}
    .spark{animation:twinkle 1.8s ease-in-out infinite}
    @keyframes bob{0%,49%{transform:translateY(0)}50%,100%{transform:translateY(-2px)}}
    @keyframes blink{0%,93%,100%{opacity:1}95%,98%{opacity:0}}
    @keyframes twinkle{0%,100%{opacity:0.9}50%{opacity:0.25}}
  </style>
  <defs>
    <radialGradient id="bg-horse-1" cx="50%" cy="40%" r="60%">
      <stop offset="0%" stop-color="#a855f7" stop-opacity="0.3"/>
      <stop offset="100%" stop-color="#a855f7" stop-opacity="0.18"/>
    </radialGradient>
  </defs>
  <circle cx="100" cy="100" r="92" fill="url(#bg-horse-1)"
          stroke="#a855f7" stroke-width="3" stroke-opacity="0.3"/>
  
  <ellipse cx="100" cy="172" rx="34" ry="5" fill="#000" opacity="0.18"/>
  <g class="bob" shape-rendering="crispEdges">
    <rect x="104" y="52" width="8" height="4" fill="#1f1326"/>
    <rect x="116" y="52" width="4" height="4" fill="#1f1326"/>
    <rect x="132" y="52" width="4" height="4" fill="#1f1326"/>
    <rect x="100" y="56" width="4" height="4" fill="#1f1326"/>
    <rect x="104" y="56" width="8" height="4" fill="#7c3aed"/>
    <rect x="112" y="56" width="4" height="4" fill="#1f1326"/>
    <rect x="116" y="56" width="4" height="4" fill="#c4b5fd"/>
    <rect x="120" y="56" width="12" height="4" fill="#1f1326"/>
    <rect x="132" y="56" width="4" height="4" fill="#c4b5fd"/>
    <rect x="136" y="56" width="4" height="4" fill="#1f1326"/>
    <rect x="100" y="60" width="4" height="4" fill="#1f1326"/>
    <rect x="104" y="60" width="12" height="4" fill="#7c3aed"/>
    <rect x="116" y="60" width="8" height="4" fill="#1f1326"/>
    <rect x="124" y="60" width="4" height="4" fill="#c4b5fd"/>
    <rect x="128" y="60" width="12" height="4" fill="#1f1326"/>
    <rect x="104" y="64" width="4" height="4" fill="#1f1326"/>
    <rect x="108" y="64" width="12" height="4" fill="#7c3aed"/>
    <rect x="120" y="64" width="20" height="4" fill="#c4b5fd"/>
    <rect x="140" y="64" width="4" height="4" fill="#1f1326"/>
    <rect x="104" y="68" width="4" height="4" fill="#1f1326"/>
    <rect x="108" y="68" width="4" height="4" fill="#c4b5fd"/>
    <rect x="112" y="68" width="8" height="4" fill="#7c3aed"/>
    <rect x="120" y="68" width="24" height="4" fill="#c4b5fd"/>
    <rect x="144" y="68" width="4" height="4" fill="#1f1326"/>
    <rect x="100" y="72" width="4" height="4" fill="#1f1326"/>
    <rect x="104" y="72" width="44" height="4" fill="#c4b5fd"/>
    <rect x="148" y="72" width="4" height="4" fill="#1f1326"/>
    <rect x="100" y="76" width="4" height="4" fill="#1f1326"/>
    <rect x="104" y="76" width="44" height="4" fill="#c4b5fd"/>
    <rect x="148" y="76" width="4" height="4" fill="#1f1326"/>
    <rect x="100" y="80" width="4" height="4" fill="#1f1326"/>
    <rect x="104" y="80" width="24" height="4" fill="#c4b5fd"/>
    <rect x="128" y="80" width="8" height="4" fill="#ffffff"/>
    <rect x="136" y="80" width="4" height="4" fill="#1f1326"/>
    <rect x="140" y="80" width="8" height="4" fill="#c4b5fd"/>
    <rect x="148" y="80" width="4" height="4" fill="#1f1326"/>
    <rect x="96" y="84" width="4" height="4" fill="#1f1326"/>
    <rect x="100" y="84" width="28" height="4" fill="#c4b5fd"/>
    <rect x="128" y="84" width="12" height="4" fill="#1f1326"/>
    <rect x="140" y="84" width="12" height="4" fill="#c4b5fd"/>
    <rect x="152" y="84" width="4" height="4" fill="#1f1326"/>
    <rect x="100" y="88" width="4" height="4" fill="#1f1326"/>
    <rect x="104" y="88" width="24" height="4" fill="#c4b5fd"/>
    <rect x="128" y="88" width="12" height="4" fill="#1f1326"/>
    <rect x="140" y="88" width="8" height="4" fill="#c4b5fd"/>
    <rect x="148" y="88" width="4" height="4" fill="#1f1326"/>
    <rect x="100" y="92" width="4" height="4" fill="#1f1326"/>
    <rect x="104" y="92" width="4" height="4" fill="#c4b5fd"/>
    <rect x="108" y="92" width="4" height="4" fill="#fda4af"/>
    <rect x="112" y="92" width="28" height="4" fill="#c4b5fd"/>
    <rect x="140" y="92" width="4" height="4" fill="#fda4af"/>
    <rect x="144" y="92" width="4" height="4" fill="#c4b5fd"/>
    <rect x="148" y="92" width="4" height="4" fill="#1f1326"/>
    <rect x="100" y="96" width="4" height="4" fill="#1f1326"/>
    <rect x="104" y="96" width="44" height="4" fill="#c4b5fd"/>
    <rect x="148" y="96" width="4" height="4" fill="#1f1326"/>
    <rect x="104" y="100" width="4" height="4" fill="#1f1326"/>
    <rect x="108" y="100" width="24" height="4" fill="#c4b5fd"/>
    <rect x="132" y="100" width="4" height="4" fill="#1f1326"/>
    <rect x="136" y="100" width="8" height="4" fill="#c4b5fd"/>
    <rect x="144" y="100" width="4" height="4" fill="#1f1326"/>
    <rect x="108" y="104" width="4" height="4" fill="#1f1326"/>
    <rect x="112" y="104" width="20" height="4" fill="#c4b5fd"/>
    <rect x="132" y="104" width="4" height="4" fill="#1f1326"/>
    <rect x="136" y="104" width="4" height="4" fill="#c4b5fd"/>
    <rect x="140" y="104" width="4" height="4" fill="#1f1326"/>
    <rect x="100" y="108" width="4" height="4" fill="#1f1326"/>
    <rect x="108" y="108" width="4" height="4" fill="#1f1326"/>
    <rect x="112" y="108" width="28" height="4" fill="#c4b5fd"/>
    <rect x="140" y="108" width="4" height="4" fill="#1f1326"/>
    <rect x="80" y="112" width="20" height="4" fill="#1f1326"/>
    <rect x="100" y="112" width="4" height="4" fill="#c4b5fd"/>
    <rect x="104" y="112" width="12" height="4" fill="#1f1326"/>
    <rect x="116" y="112" width="20" height="4" fill="#c4b5fd"/>
    <rect x="136" y="112" width="4" height="4" fill="#1f1326"/>
    <rect x="76" y="116" width="4" height="4" fill="#1f1326"/>
    <rect x="80" y="116" width="48" height="4" fill="#c4b5fd"/>
    <rect x="128" y="116" width="8" height="4" fill="#1f1326"/>
    <rect x="64" y="120" width="12" height="4" fill="#1f1326"/>
    <rect x="76" y="120" width="52" height="4" fill="#c4b5fd"/>
    <rect x="128" y="120" width="4" height="4" fill="#1f1326"/>
    <rect x="60" y="124" width="4" height="4" fill="#1f1326"/>
    <rect x="64" y="124" width="8" height="4" fill="#7c3aed"/>
    <rect x="72" y="124" width="28" height="4" fill="#c4b5fd"/>
    <rect x="100" y="124" width="4" height="4" fill="#ede9fe"/>
    <rect x="104" y="124" width="28" height="4" fill="#c4b5fd"/>
    <rect x="132" y="124" width="4" height="4" fill="#1f1326"/>
    <rect x="60" y="128" width="4" height="4" fill="#1f1326"/>
    <rect x="64" y="128" width="8" height="4" fill="#7c3aed"/>
    <rect x="72" y="128" width="8" height="4" fill="#c4b5fd"/>
    <rect x="80" y="128" width="44" height="4" fill="#ede9fe"/>
    <rect x="124" y="128" width="12" height="4" fill="#c4b5fd"/>
    <rect x="136" y="128" width="4" height="4" fill="#1f1326"/>
    <rect x="56" y="132" width="4" height="4" fill="#1f1326"/>
    <rect x="60" y="132" width="8" height="4" fill="#7c3aed"/>
    <rect x="68" y="132" width="4" height="4" fill="#1f1326"/>
    <rect x="72" y="132" width="4" height="4" fill="#c4b5fd"/>
    <rect x="76" y="132" width="52" height="4" fill="#ede9fe"/>
    <rect x="128" y="132" width="4" height="4" fill="#c4b5fd"/>
    <rect x="132" y="132" width="4" height="4" fill="#1f1326"/>
    <rect x="56" y="136" width="4" height="4" fill="#1f1326"/>
    <rect x="60" y="136" width="8" height="4" fill="#7c3aed"/>
    <rect x="68" y="136" width="8" height="4" fill="#1f1326"/>
    <rect x="76" y="136" width="4" height="4" fill="#c4b5fd"/>
    <rect x="80" y="136" width="44" height="4" fill="#ede9fe"/>
    <rect x="124" y="136" width="4" height="4" fill="#c4b5fd"/>
    <rect x="128" y="136" width="4" height="4" fill="#1f1326"/>
    <rect x="60" y="140" width="12" height="4" fill="#1f1326"/>
    <rect x="72" y="140" width="28" height="4" fill="#c4b5fd"/>
    <rect x="100" y="140" width="4" height="4" fill="#ede9fe"/>
    <rect x="104" y="140" width="28" height="4" fill="#c4b5fd"/>
    <rect x="132" y="140" width="4" height="4" fill="#1f1326"/>
    <rect x="68" y="144" width="4" height="4" fill="#1f1326"/>
    <rect x="72" y="144" width="8" height="4" fill="#c4b5fd"/>
    <rect x="80" y="144" width="12" height="4" fill="#1f1326"/>
    <rect x="92" y="144" width="20" height="4" fill="#c4b5fd"/>
    <rect x="112" y="144" width="12" height="4" fill="#1f1326"/>
    <rect x="124" y="144" width="8" height="4" fill="#c4b5fd"/>
    <rect x="132" y="144" width="4" height="4" fill="#1f1326"/>
    <rect x="68" y="148" width="4" height="4" fill="#1f1326"/>
    <rect x="72" y="148" width="8" height="4" fill="#4c1d95"/>
    <rect x="80" y="148" width="4" height="4" fill="#1f1326"/>
    <rect x="88" y="148" width="4" height="4" fill="#1f1326"/>
    <rect x="92" y="148" width="8" height="4" fill="#4c1d95"/>
    <rect x="100" y="148" width="4" height="4" fill="#1f1326"/>
    <rect x="104" y="148" width="8" height="4" fill="#4c1d95"/>
    <rect x="112" y="148" width="4" height="4" fill="#1f1326"/>
    <rect x="120" y="148" width="4" height="4" fill="#1f1326"/>
    <rect x="124" y="148" width="8" height="4" fill="#4c1d95"/>
    <rect x="132" y="148" width="4" height="4" fill="#1f1326"/>
    <rect x="72" y="152" width="8" height="4" fill="#1f1326"/>
    <rect x="92" y="152" width="8" height="4" fill="#1f1326"/>
    <rect x="104" y="152" width="8" height="4" fill="#1f1326"/>
    <rect x="124" y="152" width="8" height="4" fill="#1f1326"/>
  </g>
  <text x="100" y="190" font-size="8" text-anchor="middle"
        font-family="ui-monospace, Menlo, monospace" fill="#a855f7" opacity="0.5"
        letter-spacing="0.5">HORSE·F1</text>
</svg>
