<svg xmlns="http://www.w3.org/2000/svg" viewBox="0 0 200 200" width="200" height="200">
  <style>
    .bob{animation:bob 1.4s steps(1) infinite;transform-origin:100px 132px}
    .eyes-blink{animation:blink 4.2s steps(1) infinite}
    .spark{animation:twinkle 1.8s ease-in-out infinite}
    @keyframes bob{0%,49%{transform:translateY(0)}50%,100%{transform:translateY(-2px)}}
    @keyframes blink{0%,93%,100%{opacity:1}95%,98%{opacity:0}}
    @keyframes twinkle{0%,100%{opacity:0.9}50%{opacity:0.25}}
  </style>
  <defs>
    <radialGradient id="bg-koi-1" cx="50%" cy="40%" r="60%">
      <stop offset="0%" stop-color="#ef4444" stop-opacity="0.3"/>
      <stop offset="100%" stop-color="#ef4444" stop-opacity="0.18"/>
    </radialGradient>
  </defs>
  <circle cx="100" cy="100" r="92" fill="url(#bg-koi-1)"
          stroke="#ef4444" stroke-width="3" stroke-opacity="0.3"/>
  
  <ellipse cx="100" cy="172" rx="34" ry="5" fill="#000" opacity="0.18"/>
  <g class="bob" shape-rendering="crispEdges">
    <rect x="104" y="84" width="4" height="4" fill="#1f1326"/>
    <rect x="88" y="88" width="16" height="4" fill="#1f1326"/>
    <rect x="104" y="88" width="4" height="4" fill="#ffffff"/>
    <rect x="108" y="88" width="16" height="4" fill="#1f1326"/>
    <rect x="56" y="92" width="8" height="4" fill="#1f1326"/>
    <rect x="80" y="92" width="8" height="4" fill="#1f1326"/>
    <rect x="88" y="92" width="36" height="4" fill="#ffffff"/>
    <rect x="124" y="92" width="8" height="4" fill="#1f1326"/>
    <rect x="52" y="96" width="4" height="4" fill="#1f1326"/>
    <rect x="56" y="96" width="8" height="4" fill="#f87171"/>
    <rect x="64" y="96" width="8" height="4" fill="#1f1326"/>
    <rect x="76" y="96" width="4" height="4" fill="#1f1326"/>
    <rect x="80" y="96" width="16" height="4" fill="#ffffff"/>
    <rect x="96" y="96" width="4" height="4" fill="#dc2626"/>
    <rect x="100" y="96" width="32" height="4" fill="#ffffff"/>
    <rect x="132" y="96" width="4" height="4" fill="#1f1326"/>
    <rect x="52" y="100" width="4" height="4" fill="#1f1326"/>
    <rect x="56" y="100" width="16" height="4" fill="#f87171"/>
    <rect x="72" y="100" width="4" height="4" fill="#1f1326"/>
    <rect x="76" y="100" width="16" height="4" fill="#ffffff"/>
    <rect x="92" y="100" width="8" height="4" fill="#dc2626"/>
    <rect x="100" y="100" width="36" height="4" fill="#ffffff"/>
    <rect x="136" y="100" width="4" height="4" fill="#1f1326"/>
    <rect x="52" y="104" width="4" height="4" fill="#1f1326"/>
    <rect x="56" y="104" width="16" height="4" fill="#f87171"/>
    <rect x="72" y="104" width="4" height="4" fill="#1f1326"/>
    <rect x="76" y="104" width="52" height="4" fill="#ffffff"/>
    <rect x="128" y="104" width="4" height="4" fill="#1f1326"/>
    <rect x="132" y="104" width="4" height="4" fill="#ffffff"/>
    <rect x="136" y="104" width="4" height="4" fill="#1f1326"/>
    <rect x="52" y="108" width="4" height="4" fill="#1f1326"/>
    <rect x="56" y="108" width="16" height="4" fill="#f87171"/>
    <rect x="72" y="108" width="40" height="4" fill="#ffffff"/>
    <rect x="112" y="108" width="4" height="4" fill="#b91c1c"/>
    <rect x="116" y="108" width="4" height="4" fill="#ffffff"/>
    <rect x="120" y="108" width="12" height="4" fill="#1f1326"/>
    <rect x="132" y="108" width="8" height="4" fill="#ffffff"/>
    <rect x="140" y="108" width="4" height="4" fill="#1f1326"/>
    <rect x="52" y="112" width="4" height="4" fill="#1f1326"/>
    <rect x="56" y="112" width="16" height="4" fill="#f87171"/>
    <rect x="72" y="112" width="4" height="4" fill="#1f1326"/>
    <rect x="76" y="112" width="44" height="4" fill="#ffffff"/>
    <rect x="120" y="112" width="20" height="4" fill="#1f1326"/>
    <rect x="52" y="116" width="4" height="4" fill="#1f1326"/>
    <rect x="56" y="116" width="12" height="4" fill="#f87171"/>
    <rect x="68" y="116" width="8" height="4" fill="#1f1326"/>
    <rect x="76" y="116" width="36" height="4" fill="#ffffff"/>
    <rect x="112" y="116" width="4" height="4" fill="#fda4af"/>
    <rect x="116" y="116" width="12" height="4" fill="#ffffff"/>
    <rect x="128" y="116" width="4" height="4" fill="#fda4af"/>
    <rect x="132" y="116" width="4" height="4" fill="#ffffff"/>
    <rect x="136" y="116" width="4" height="4" fill="#1f1326"/>
    <rect x="52" y="120" width="4" height="4" fill="#1f1326"/>
    <rect x="56" y="120" width="4" height="4" fill="#f87171"/>
    <rect x="60" y="120" width="8" height="4" fill="#1f1326"/>
    <rect x="76" y="120" width="4" height="4" fill="#1f1326"/>
    <rect x="80" y="120" width="52" height="4" fill="#ffffff"/>
    <rect x="132" y="120" width="4" height="4" fill="#1f1326"/>
    <rect x="56" y="124" width="4" height="4" fill="#1f1326"/>
    <rect x="80" y="124" width="8" height="4" fill="#1f1326"/>
    <rect x="88" y="124" width="36" height="4" fill="#ffffff"/>
    <rect x="124" y="124" width="8" height="4" fill="#1f1326"/>
    <rect x="88" y="128" width="16" height="4" fill="#1f1326"/>
    <rect x="104" y="128" width="4" height="4" fill="#ffffff"/>
    <rect x="108" y="128" width="16" height="4" fill="#1f1326"/>
    <rect x="104" y="132" width="4" height="4" fill="#1f1326"/>
  </g>
  <text x="100" y="190" font-size="8" text-anchor="middle"
        font-family="ui-monospace, Menlo, monospace" fill="#ef4444" opacity="0.5"
        letter-spacing="0.5">KOI·F1</text>
</svg>
