<svg xmlns="http://www.w3.org/2000/svg" viewBox="0 0 200 200" width="200" height="200">
  <style>
    .bob{animation:bob 1.4s steps(1) infinite;transform-origin:100px 132px}
    .eyes-blink{animation:blink 4.2s steps(1) infinite}
    .spark{animation:twinkle 1.8s ease-in-out infinite}
    @keyframes bob{0%,49%{transform:translateY(0)}50%,100%{transform:translateY(-2px)}}
    @keyframes blink{0%,93%,100%{opacity:1}95%,98%{opacity:0}}
    @keyframes twinkle{0%,100%{opacity:0.9}50%{opacity:0.25}}
  </style>
  <defs>
    <radialGradient id="bg-koi-2" cx="50%" cy="40%" r="60%">
      <stop offset="0%" stop-color="#ef4444" stop-opacity="0.42"/>
      <stop offset="100%" stop-color="#ef4444" stop-opacity="0.3"/>
    </radialGradient>
  </defs>
  <circle cx="100" cy="100" r="92" fill="url(#bg-koi-2)"
          stroke="#ef4444" stroke-width="3" stroke-opacity="0.55"/>
  
  <ellipse cx="100" cy="172" rx="34" ry="5" fill="#000" opacity="0.18"/>
  <g class="bob" shape-rendering="crispEdges">
    <rect x="100" y="76" width="12" height="4" fill="#1f1326"/>
    <rect x="96" y="80" width="4" height="4" fill="#1f1326"/>
    <rect x="100" y="80" width="12" height="4" fill="#f87171"/>
    <rect x="112" y="80" width="4" height="4" fill="#1f1326"/>
    <rect x="84" y="84" width="16" height="4" fill="#1f1326"/>
    <rect x="100" y="84" width="12" height="4" fill="#f87171"/>
    <rect x="112" y="84" width="16" height="4" fill="#1f1326"/>
    <rect x="44" y="88" width="8" height="4" fill="#1f1326"/>
    <rect x="76" y="88" width="8" height="4" fill="#1f1326"/>
    <rect x="84" y="88" width="44" height="4" fill="#ffffff"/>
    <rect x="128" y="88" width="8" height="4" fill="#1f1326"/>
    <rect x="40" y="92" width="4" height="4" fill="#1f1326"/>
    <rect x="44" y="92" width="8" height="4" fill="#f87171"/>
    <rect x="52" y="92" width="8" height="4" fill="#1f1326"/>
    <rect x="72" y="92" width="4" height="4" fill="#1f1326"/>
    <rect x="76" y="92" width="60" height="4" fill="#ffffff"/>
    <rect x="136" y="92" width="4" height="4" fill="#1f1326"/>
    <rect x="40" y="96" width="4" height="4" fill="#1f1326"/>
    <rect x="44" y="96" width="16" height="4" fill="#f87171"/>
    <rect x="60" y="96" width="4" height="4" fill="#1f1326"/>
    <rect x="68" y="96" width="4" height="4" fill="#1f1326"/>
    <rect x="72" y="96" width="24" height="4" fill="#ffffff"/>
    <rect x="96" y="96" width="4" height="4" fill="#dc2626"/>
    <rect x="100" y="96" width="40" height="4" fill="#ffffff"/>
    <rect x="140" y="96" width="4" height="4" fill="#1f1326"/>
    <rect x="40" y="100" width="4" height="4" fill="#1f1326"/>
    <rect x="44" y="100" width="20" height="4" fill="#f87171"/>
    <rect x="64" y="100" width="4" height="4" fill="#1f1326"/>
    <rect x="68" y="100" width="24" height="4" fill="#ffffff"/>
    <rect x="92" y="100" width="8" height="4" fill="#dc2626"/>
    <rect x="100" y="100" width="44" height="4" fill="#ffffff"/>
    <rect x="144" y="100" width="4" height="4" fill="#1f1326"/>
    <rect x="40" y="104" width="4" height="4" fill="#1f1326"/>
    <rect x="44" y="104" width="20" height="4" fill="#f87171"/>
    <rect x="64" y="104" width="4" height="4" fill="#1f1326"/>
    <rect x="68" y="104" width="64" height="4" fill="#ffffff"/>
    <rect x="132" y="104" width="4" height="4" fill="#1f1326"/>
    <rect x="136" y="104" width="8" height="4" fill="#ffffff"/>
    <rect x="144" y="104" width="4" height="4" fill="#1f1326"/>
    <rect x="40" y="108" width="4" height="4" fill="#1f1326"/>
    <rect x="44" y="108" width="20" height="4" fill="#f87171"/>
    <rect x="64" y="108" width="52" height="4" fill="#ffffff"/>
    <rect x="116" y="108" width="4" height="4" fill="#dc2626"/>
    <rect x="120" y="108" width="4" height="4" fill="#b91c1c"/>
    <rect x="124" y="108" width="4" height="4" fill="#ffffff"/>
    <rect x="128" y="108" width="8" height="4" fill="#1f1326"/>
    <rect x="136" y="108" width="12" height="4" fill="#ffffff"/>
    <rect x="148" y="108" width="4" height="4" fill="#1f1326"/>
    <rect x="40" y="112" width="4" height="4" fill="#1f1326"/>
    <rect x="44" y="112" width="20" height="4" fill="#f87171"/>
    <rect x="64" y="112" width="4" height="4" fill="#1f1326"/>
    <rect x="68" y="112" width="44" height="4" fill="#ffffff"/>
    <rect x="112" y="112" width="8" height="4" fill="#dc2626"/>
    <rect x="120" y="112" width="16" height="4" fill="#ffffff"/>
    <rect x="136" y="112" width="12" height="4" fill="#1f1326"/>
    <rect x="40" y="116" width="4" height="4" fill="#1f1326"/>
    <rect x="44" y="116" width="20" height="4" fill="#f87171"/>
    <rect x="64" y="116" width="4" height="4" fill="#1f1326"/>
    <rect x="68" y="116" width="52" height="4" fill="#ffffff"/>
    <rect x="120" y="116" width="4" height="4" fill="#fda4af"/>
    <rect x="124" y="116" width="12" height="4" fill="#ffffff"/>
    <rect x="136" y="116" width="4" height="4" fill="#fda4af"/>
    <rect x="140" y="116" width="4" height="4" fill="#ffffff"/>
    <rect x="144" y="116" width="4" height="4" fill="#1f1326"/>
    <rect x="40" y="120" width="4" height="4" fill="#1f1326"/>
    <rect x="44" y="120" width="12" height="4" fill="#f87171"/>
    <rect x="56" y="120" width="8" height="4" fill="#1f1326"/>
    <rect x="68" y="120" width="4" height="4" fill="#1f1326"/>
    <rect x="72" y="120" width="68" height="4" fill="#ffffff"/>
    <rect x="140" y="120" width="4" height="4" fill="#1f1326"/>
    <rect x="40" y="124" width="4" height="4" fill="#1f1326"/>
    <rect x="44" y="124" width="4" height="4" fill="#f87171"/>
    <rect x="48" y="124" width="8" height="4" fill="#1f1326"/>
    <rect x="72" y="124" width="4" height="4" fill="#1f1326"/>
    <rect x="76" y="124" width="60" height="4" fill="#ffffff"/>
    <rect x="136" y="124" width="4" height="4" fill="#1f1326"/>
    <rect x="44" y="128" width="4" height="4" fill="#1f1326"/>
    <rect x="76" y="128" width="8" height="4" fill="#1f1326"/>
    <rect x="84" y="128" width="44" height="4" fill="#ffffff"/>
    <rect x="128" y="128" width="8" height="4" fill="#1f1326"/>
    <rect x="84" y="132" width="20" height="4" fill="#1f1326"/>
    <rect x="104" y="132" width="4" height="4" fill="#ffffff"/>
    <rect x="108" y="132" width="16" height="4" fill="#1f1326"/>
    <rect x="124" y="132" width="12" height="4" fill="#f87171"/>
    <rect x="136" y="132" width="4" height="4" fill="#1f1326"/>
    <rect x="104" y="136" width="4" height="4" fill="#1f1326"/>
    <rect x="124" y="136" width="12" height="4" fill="#1f1326"/>
  </g>
  <text x="100" y="190" font-size="8" text-anchor="middle"
        font-family="ui-monospace, Menlo, monospace" fill="#ef4444" opacity="0.5"
        letter-spacing="0.5">KOI·F2</text>
</svg>
