<svg xmlns="http://www.w3.org/2000/svg" viewBox="0 0 200 200" width="200" height="200">
  <style>
    .bob{animation:bob 1.4s steps(1) infinite;transform-origin:100px 132px}
    .eyes-blink{animation:blink 4.2s steps(1) infinite}
    .spark{animation:twinkle 1.8s ease-in-out infinite}
    @keyframes bob{0%,49%{transform:translateY(0)}50%,100%{transform:translateY(-2px)}}
    @keyframes blink{0%,93%,100%{opacity:1}95%,98%{opacity:0}}
    @keyframes twinkle{0%,100%{opacity:0.9}50%{opacity:0.25}}
  </style>
  <defs>
    <radialGradient id="bg-plant-3" cx="50%" cy="40%" r="60%">
      <stop offset="0%" stop-color="#10b981" stop-opacity="0.54"/>
      <stop offset="100%" stop-color="#10b981" stop-opacity="0.42"/>
    </radialGradient>
  </defs>
  <circle cx="100" cy="100" r="92" fill="url(#bg-plant-3)"
          stroke="#10b981" stroke-width="3" stroke-opacity="0.85"/>
  <g class="spark"><rect x="32" y="58" width="4" height="4" fill="#fde68a"/><rect x="160" y="50" width="4" height="4" fill="#fde68a"/><rect x="42" y="148" width="4" height="4" fill="#fde68a"/><rect x="156" y="146" width="4" height="4" fill="#fde68a"/><rect x="28" y="100" width="3" height="3" fill="#fef9c3"/><rect x="170" y="102" width="3" height="3" fill="#fef9c3"/></g>
  <ellipse cx="100" cy="172" rx="34" ry="5" fill="#000" opacity="0.18"/>
  <g class="bob" shape-rendering="crispEdges">
    <rect x="100" y="40" width="4" height="4" fill="#1f1326"/>
    <rect x="84" y="44" width="16" height="4" fill="#1f1326"/>
    <rect x="100" y="44" width="4" height="4" fill="#22c55e"/>
    <rect x="104" y="44" width="16" height="4" fill="#1f1326"/>
    <rect x="80" y="48" width="4" height="4" fill="#1f1326"/>
    <rect x="84" y="48" width="16" height="4" fill="#22c55e"/>
    <rect x="100" y="48" width="4" height="4" fill="#fde047"/>
    <rect x="104" y="48" width="16" height="4" fill="#22c55e"/>
    <rect x="120" y="48" width="4" height="4" fill="#1f1326"/>
    <rect x="76" y="52" width="4" height="4" fill="#1f1326"/>
    <rect x="80" y="52" width="12" height="4" fill="#22c55e"/>
    <rect x="92" y="52" width="4" height="4" fill="#86efac"/>
    <rect x="96" y="52" width="28" height="4" fill="#22c55e"/>
    <rect x="124" y="52" width="4" height="4" fill="#1f1326"/>
    <rect x="72" y="56" width="4" height="4" fill="#1f1326"/>
    <rect x="76" y="56" width="4" height="4" fill="#22c55e"/>
    <rect x="80" y="56" width="28" height="4" fill="#86efac"/>
    <rect x="108" y="56" width="20" height="4" fill="#22c55e"/>
    <rect x="128" y="56" width="4" height="4" fill="#1f1326"/>
    <rect x="68" y="60" width="4" height="4" fill="#1f1326"/>
    <rect x="72" y="60" width="4" height="4" fill="#22c55e"/>
    <rect x="76" y="60" width="36" height="4" fill="#86efac"/>
    <rect x="112" y="60" width="20" height="4" fill="#22c55e"/>
    <rect x="132" y="60" width="4" height="4" fill="#1f1326"/>
    <rect x="64" y="64" width="4" height="4" fill="#1f1326"/>
    <rect x="68" y="64" width="4" height="4" fill="#22c55e"/>
    <rect x="72" y="64" width="44" height="4" fill="#86efac"/>
    <rect x="116" y="64" width="20" height="4" fill="#22c55e"/>
    <rect x="136" y="64" width="4" height="4" fill="#1f1326"/>
    <rect x="68" y="68" width="4" height="4" fill="#f43f5e"/>
    <rect x="72" y="68" width="44" height="4" fill="#86efac"/>
    <rect x="116" y="68" width="20" height="4" fill="#22c55e"/>
    <rect x="136" y="68" width="4" height="4" fill="#1f1326"/>
    <rect x="64" y="72" width="4" height="4" fill="#1f1326"/>
    <rect x="68" y="72" width="52" height="4" fill="#86efac"/>
    <rect x="120" y="72" width="8" height="4" fill="#22c55e"/>
    <rect x="128" y="72" width="4" height="4" fill="#f43f5e"/>
    <rect x="132" y="72" width="4" height="4" fill="#22c55e"/>
    <rect x="136" y="72" width="4" height="4" fill="#1f1326"/>
    <rect x="64" y="76" width="4" height="4" fill="#1f1326"/>
    <rect x="68" y="76" width="4" height="4" fill="#22c55e"/>
    <rect x="72" y="76" width="20" height="4" fill="#86efac"/>
    <rect x="92" y="76" width="4" height="4" fill="#ffffff"/>
    <rect x="96" y="76" width="4" height="4" fill="#1f1326"/>
    <rect x="100" y="76" width="8" height="4" fill="#86efac"/>
    <rect x="108" y="76" width="4" height="4" fill="#ffffff"/>
    <rect x="112" y="76" width="4" height="4" fill="#1f1326"/>
    <rect x="116" y="76" width="20" height="4" fill="#22c55e"/>
    <rect x="136" y="76" width="4" height="4" fill="#1f1326"/>
    <rect x="60" y="80" width="4" height="4" fill="#1f1326"/>
    <rect x="64" y="80" width="8" height="4" fill="#22c55e"/>
    <rect x="72" y="80" width="20" height="4" fill="#86efac"/>
    <rect x="92" y="80" width="8" height="4" fill="#1f1326"/>
    <rect x="100" y="80" width="8" height="4" fill="#86efac"/>
    <rect x="108" y="80" width="8" height="4" fill="#1f1326"/>
    <rect x="116" y="80" width="12" height="4" fill="#22c55e"/>
    <rect x="128" y="80" width="4" height="4" fill="#065f46"/>
    <rect x="132" y="80" width="8" height="4" fill="#22c55e"/>
    <rect x="140" y="80" width="4" height="4" fill="#1f1326"/>
    <rect x="64" y="84" width="4" height="4" fill="#1f1326"/>
    <rect x="68" y="84" width="4" height="4" fill="#22c55e"/>
    <rect x="72" y="84" width="4" height="4" fill="#065f46"/>
    <rect x="76" y="84" width="20" height="4" fill="#86efac"/>
    <rect x="96" y="84" width="12" height="4" fill="#1f1326"/>
    <rect x="108" y="84" width="4" height="4" fill="#86efac"/>
    <rect x="112" y="84" width="12" height="4" fill="#22c55e"/>
    <rect x="124" y="84" width="4" height="4" fill="#065f46"/>
    <rect x="128" y="84" width="8" height="4" fill="#22c55e"/>
    <rect x="136" y="84" width="4" height="4" fill="#1f1326"/>
    <rect x="64" y="88" width="4" height="4" fill="#1f1326"/>
    <rect x="68" y="88" width="12" height="4" fill="#22c55e"/>
    <rect x="80" y="88" width="28" height="4" fill="#86efac"/>
    <rect x="108" y="88" width="28" height="4" fill="#22c55e"/>
    <rect x="136" y="88" width="4" height="4" fill="#1f1326"/>
    <rect x="64" y="92" width="4" height="4" fill="#1f1326"/>
    <rect x="68" y="92" width="24" height="4" fill="#22c55e"/>
    <rect x="92" y="92" width="4" height="4" fill="#86efac"/>
    <rect x="96" y="92" width="40" height="4" fill="#22c55e"/>
    <rect x="136" y="92" width="4" height="4" fill="#1f1326"/>
    <rect x="64" y="96" width="4" height="4" fill="#1f1326"/>
    <rect x="68" y="96" width="68" height="4" fill="#22c55e"/>
    <rect x="136" y="96" width="4" height="4" fill="#1f1326"/>
    <rect x="68" y="100" width="4" height="4" fill="#1f1326"/>
    <rect x="72" y="100" width="60" height="4" fill="#22c55e"/>
    <rect x="132" y="100" width="4" height="4" fill="#1f1326"/>
    <rect x="72" y="104" width="4" height="4" fill="#1f1326"/>
    <rect x="76" y="104" width="52" height="4" fill="#22c55e"/>
    <rect x="128" y="104" width="4" height="4" fill="#1f1326"/>
    <rect x="76" y="108" width="4" height="4" fill="#1f1326"/>
    <rect x="80" y="108" width="44" height="4" fill="#22c55e"/>
    <rect x="124" y="108" width="4" height="4" fill="#1f1326"/>
    <rect x="80" y="112" width="4" height="4" fill="#1f1326"/>
    <rect x="84" y="112" width="36" height="4" fill="#22c55e"/>
    <rect x="120" y="112" width="4" height="4" fill="#1f1326"/>
    <rect x="84" y="116" width="16" height="4" fill="#1f1326"/>
    <rect x="100" y="116" width="4" height="4" fill="#22c55e"/>
    <rect x="104" y="116" width="4" height="4" fill="#5b2e0c"/>
    <rect x="108" y="116" width="12" height="4" fill="#1f1326"/>
    <rect x="96" y="120" width="4" height="4" fill="#1f1326"/>
    <rect x="100" y="120" width="4" height="4" fill="#92400e"/>
    <rect x="104" y="120" width="4" height="4" fill="#5b2e0c"/>
    <rect x="108" y="120" width="4" height="4" fill="#1f1326"/>
    <rect x="96" y="124" width="4" height="4" fill="#1f1326"/>
    <rect x="100" y="124" width="4" height="4" fill="#92400e"/>
    <rect x="104" y="124" width="4" height="4" fill="#5b2e0c"/>
    <rect x="108" y="124" width="4" height="4" fill="#1f1326"/>
    <rect x="96" y="128" width="4" height="4" fill="#1f1326"/>
    <rect x="100" y="128" width="4" height="4" fill="#92400e"/>
    <rect x="104" y="128" width="4" height="4" fill="#5b2e0c"/>
    <rect x="108" y="128" width="4" height="4" fill="#1f1326"/>
    <rect x="96" y="132" width="4" height="4" fill="#1f1326"/>
    <rect x="100" y="132" width="4" height="4" fill="#92400e"/>
    <rect x="104" y="132" width="4" height="4" fill="#5b2e0c"/>
    <rect x="108" y="132" width="4" height="4" fill="#1f1326"/>
    <rect x="96" y="136" width="4" height="4" fill="#1f1326"/>
    <rect x="100" y="136" width="4" height="4" fill="#92400e"/>
    <rect x="104" y="136" width="4" height="4" fill="#5b2e0c"/>
    <rect x="108" y="136" width="4" height="4" fill="#1f1326"/>
    <rect x="96" y="140" width="4" height="4" fill="#1f1326"/>
    <rect x="100" y="140" width="4" height="4" fill="#92400e"/>
    <rect x="104" y="140" width="4" height="4" fill="#5b2e0c"/>
    <rect x="108" y="140" width="4" height="4" fill="#1f1326"/>
    <rect x="96" y="144" width="4" height="4" fill="#1f1326"/>
    <rect x="100" y="144" width="4" height="4" fill="#92400e"/>
    <rect x="104" y="144" width="4" height="4" fill="#5b2e0c"/>
    <rect x="108" y="144" width="4" height="4" fill="#1f1326"/>
    <rect x="96" y="148" width="4" height="4" fill="#1f1326"/>
    <rect x="100" y="148" width="4" height="4" fill="#92400e"/>
    <rect x="104" y="148" width="4" height="4" fill="#5b2e0c"/>
    <rect x="108" y="148" width="4" height="4" fill="#1f1326"/>
    <rect x="96" y="152" width="4" height="4" fill="#1f1326"/>
    <rect x="100" y="152" width="4" height="4" fill="#92400e"/>
    <rect x="104" y="152" width="4" height="4" fill="#5b2e0c"/>
    <rect x="108" y="152" width="4" height="4" fill="#1f1326"/>
    <rect x="96" y="156" width="4" height="4" fill="#1f1326"/>
    <rect x="100" y="156" width="4" height="4" fill="#92400e"/>
    <rect x="104" y="156" width="4" height="4" fill="#5b2e0c"/>
    <rect x="108" y="156" width="4" height="4" fill="#1f1326"/>
    <rect x="80" y="160" width="48" height="4" fill="#7c2d12"/>
  </g>
  <text x="100" y="190" font-size="8" text-anchor="middle"
        font-family="ui-monospace, Menlo, monospace" fill="#10b981" opacity="0.5"
        letter-spacing="0.5">PLANT·F3</text>
</svg>
